<svg height="512" viewBox="0 0 512 512" width="512" xmlns="http://www.w3.org/2000/svg"><g id="Outline"><path d="m336 163.843 37-29.6-10-12.489-27 21.6v-15.354a8 8 0 0 0 -8-8h-144a8 8 0 0 0 -8 8v15.357l-27-21.6-10 12.489 37 29.6v84.154h-48v16h48v84.157l-37 29.6 10 12.489 27-21.6v15.354a8 8 0 0 0 8 8h144a8 8 0 0 0 8-8v-15.357l27 21.6 10-12.489-37-29.6v-84.154h48v-16h-48zm-16 148.157h-128v-48h128zm-128-64v-48h128v48zm128-112v48h-128v-48zm-128 240v-48h128v48z"/><path d="m208 152h16v16h-16z"/><path d="m240 152h64v16h-64z"/><path d="m208 216h16v16h-16z"/><path d="m240 216h64v16h-64z"/><path d="m208 280h16v16h-16z"/><path d="m240 280h64v16h-64z"/><path d="m208 344h16v16h-16z"/><path d="m240 344h64v16h-64z"/><path d="m432 88a16.016 16.016 0 0 0 16-16v-40a16.016 16.016 0 0 0 -16-16h-64a16.016 16.016 0 0 0 -16 16v40a16.016 16.016 0 0 0 16 16h24v16h-16v16h48v-16h-16v-16zm-64-56h64l.012 40h-64.012z"/><path d="m88 104v16h48v-16h-16v-16h24a16.016 16.016 0 0 0 16-16v-40a16.016 16.016 0 0 0 -16-16h-64a16.016 16.016 0 0 0 -16 16v40a16.016 16.016 0 0 0 16 16h24v16zm-8-72h64l.012 40h-64.012z"/><path d="m32 280h24v16h-16v16h48v-16h-16v-16h24a16.016 16.016 0 0 0 16-16v-40a16.016 16.016 0 0 0 -16-16h-64a16.016 16.016 0 0 0 -16 16v40a16.016 16.016 0 0 0 16 16zm0-56h64l.012 40h-64.012z"/><path d="m480 216h-64a16.016 16.016 0 0 0 -16 16v40a16.016 16.016 0 0 0 16 16h24v16h-16v16h48v-16h-16v-16h24a16.016 16.016 0 0 0 16-16v-40a16.016 16.016 0 0 0 -16-16zm-64 56v-40h64l.012 40z"/><path d="m432 464a16.016 16.016 0 0 0 16-16v-40a16.016 16.016 0 0 0 -16-16h-64a16.016 16.016 0 0 0 -16 16v40a16.016 16.016 0 0 0 16 16h24v16h-16v16h48v-16h-16v-16zm-64-56h64l.012 40h-64.012z"/><path d="m144 464a16.016 16.016 0 0 0 16-16v-40a16.016 16.016 0 0 0 -16-16h-64a16.016 16.016 0 0 0 -16 16v40a16.016 16.016 0 0 0 16 16h24v16h-16v16h48v-16h-16v-16zm-64-56h64l.012 40h-64.012z"/></g></svg>